<svg width="24" height="24" viewBox="0 0 24 24" fill="none" xmlns="http://www.w3.org/2000/svg">
<mask id="mask0_2307_81" style="mask-type:luminance" maskUnits="userSpaceOnUse" x="3" y="3" width="18" height="18">
<path d="M21 3H3V21H21V3Z" fill="white"/>
</mask>
<g mask="url(#mask0_2307_81)">
<path d="M11.962 20.9968H12.0337C15.6076 20.9968 17.6821 20.637 19.1515 19.2104C20.6498 17.6971 20.9958 15.6087 20.9958 12.0487V11.9481C20.9958 8.38918 20.6498 6.31469 19.1515 4.7864C17.6831 3.35985 15.5937 3 12.0348 3H11.963C8.38919 3 6.31362 3.35985 4.84423 4.7864C3.34593 6.2997 3 8.38918 3 11.9481V12.0487C3 15.6076 3.34593 17.6821 4.84423 19.2104C6.2997 20.637 8.38919 20.9968 11.962 20.9968Z" fill="#FFD479"/>
<path d="M18.8534 11.8621C18.8534 11.7936 18.7977 11.7368 18.7291 11.7336C16.2694 11.6404 14.7724 11.3267 13.7251 10.2794C12.6757 9.22997 12.363 7.73186 12.2698 5.26679C12.2677 5.19826 12.2109 5.14258 12.1413 5.14258H11.8544C11.7858 5.14258 11.7291 5.19826 11.7259 5.26679C11.6327 7.73079 11.32 9.22997 10.2706 10.2794C9.22223 11.3277 7.72626 11.6404 5.26655 11.7336C5.19801 11.7357 5.14233 11.7925 5.14233 11.8621V12.1491C5.14233 12.2176 5.19801 12.2744 5.26655 12.2776C7.72626 12.3707 9.22329 12.6845 10.2706 13.7318C11.3179 14.7791 11.6305 16.2729 11.7248 18.7283C11.7269 18.7968 11.7837 18.8525 11.8533 18.8525H12.1413C12.2099 18.8525 12.2666 18.7968 12.2698 18.7283C12.3641 16.2729 12.6768 14.7791 13.7241 13.7318C14.7724 12.6834 16.2683 12.3707 18.7281 12.2776C18.7966 12.2754 18.8523 12.2187 18.8523 12.1491V11.8621H18.8534Z" fill="#1F2A32"/>
</g>
</svg>
