<svg width="24" height="24" viewBox="0 0 24 24" fill="none" xmlns="http://www.w3.org/2000/svg">
<path d="M15.921 5.69727H2.75012V19.908H6.41594V15.2848H13.4404L16.6454 19.908H20.7501L17.216 15.2635C18.3137 15.0931 19.1038 14.6882 19.5868 14.0491C20.0696 13.41 20.3112 12.3872 20.3112 11.0237V9.95843C20.3112 9.14879 20.2235 8.50966 20.0698 8.01965C19.916 7.52963 19.6526 7.10346 19.2795 6.71999C18.8843 6.3578 18.4454 6.10215 17.9185 5.93175C17.3916 5.78264 16.7331 5.69727 15.921 5.69727ZM15.3283 12.153H6.41594V8.82916H15.3283C15.833 8.82916 16.1843 8.9143 16.3599 9.06353C16.5355 9.21264 16.6454 9.48957 16.6454 9.89446V11.0876C16.6454 11.5136 16.5355 11.7905 16.3599 11.9397C16.1843 12.0888 15.8332 12.1527 15.3283 12.1527V12.153Z" stroke="#FFD479" stroke-width="2" stroke-linecap="round" stroke-linejoin="round"/>
<path d="M20.4911 5.44727C21.1811 5.44727 21.7408 4.88764 21.7408 4.19727C21.7408 3.50689 21.1811 2.94727 20.4911 2.94727C19.8006 2.94727 19.2408 3.50689 19.2408 4.19727C19.2408 4.88764 19.8006 5.44727 20.4911 5.44727Z" fill="#FFD479"/>
</svg>
