<svg width="24" height="24" viewBox="0 0 24 24" fill="none" xmlns="http://www.w3.org/2000/svg">
<g clip-path="url(#clip0_2307_76)">
<path d="M1.68 1.68C3.17891e-07 3.376 0 6.088 0 11.52V12.48C0 17.904 3.17891e-07 20.616 1.68 22.32C3.376 24 6.088 24 11.52 24H12.48C17.904 24 20.616 24 22.32 22.32C24 20.624 24 17.912 24 12.48V11.52C24 6.096 24 3.384 22.32 1.68C20.624 3.17891e-07 17.912 0 12.48 0H11.52C6.096 0 3.384 3.17891e-07 1.68 1.68ZM4.04817 7.30423H6.80017C6.88817 11.8803 8.90417 13.8163 10.5041 14.2163V7.30423H13.0881V11.2483C14.6641 11.0803 16.3281 9.28023 16.8881 7.29623H19.4641C19.2541 8.32324 18.8345 9.29591 18.2316 10.1535C17.6288 11.0109 16.8555 11.7349 15.9601 12.2803C16.9593 12.7775 17.8417 13.4809 18.5491 14.3443C19.2565 15.2075 19.7729 16.2108 20.0641 17.2883H17.2241C16.6161 15.3923 15.0961 13.9203 13.0881 13.7203V17.2883H12.7761H12.7681C7.29617 17.2883 4.17617 13.5443 4.04817 7.30423Z" fill="#FFD479"/>
</g>
<defs>
<clipPath id="clip0_2307_76">
<rect width="24" height="24" fill="white"/>
</clipPath>
</defs>
</svg>
